inDegrees=yes
name=ik_S51_A02_T02
DataType=double
version=3
OpenSimVersion=4.3-2021-08-27-4bc7ad9
endheader
time	pelvis_tilt	pelvis_list	pelvis_rotation	pelvis_tx	pelvis_ty	pelvis_tz	hip_flexion_r	hip_adduction_r	hip_rotation_r	knee_angle_r	knee_angle_r_beta	ankle_angle_r	subtalar_angle_r	mtp_angle_r	hip_flexion_l	hip_adduction_l	hip_rotation_l	knee_angle_l	knee_angle_l_beta	ankle_angle_l	subtalar_angle_l	mtp_angle_l	lumbar_extension	lumbar_bending	lumbar_rotation	arm_flex_r	arm_add_r	arm_rot_r	elbow_flex_r	pro_sup_r	wrist_flex_r	wrist_dev_r	arm_flex_l	arm_add_l	arm_rot_l	elbow_flex_l	pro_sup_l	wrist_flex_l	wrist_dev_l
31.23999999999942	0.1401510986146184	-1.536119956811385	93.81918463750887	0	0.9399999999999999	0	-3.492432453767303	-1.673027102402016	-18.56478447778213	34.66578595109545	0.6050321026382096	0	0	0	13.28892619761862	2.385239448542706	-7.450346350605292	5.21614206248496	0.09103885324213035	0	0	0	0	0	0	40.37683174092825	-40.37683174092825	4.906182204235986	83.75843475008438	85.09381806631545	0	0	40.37683174092825	-40.37683174092825	4.906182204235986	83.75843475008438	85.09381806629797	0	0
31.25999999999942	0.1397881019327196	-1.32638631922988	93.5665024462855	0	0.9399999999999999	0	-4.758446201111575	-0.595101730436331	-18.58673704327313	33.38805496190725	0.5827314899221114	0	0	0	14.91287519913411	2.148756715135491	-7.216870059314497	5.857964142181707	0.102240761744836	0	0	0	0	0	0	40.38968378078036	-40.38968378078036	4.906636524742245	83.76444770093019	85.09336374582865	0	0	40.38968378078036	-40.38968378078036	4.906636524742245	83.76444770093019	85.09336374581123	0	0
31.27999999999942	0.2667704709516646	-0.9698481691270681	93.02748914236156	0	0.9399999999999999	0	-5.578873360195406	1.07343979410117	-17.91455625435194	30.20808150172876	0.52723048291596	0	0	0	15.52938458009607	1.851049756689936	-7.121019241709131	5.566826437197272	0.09715945021615773	0	0	0	0	0	0	40.39138272950239	-40.39138272950239	4.906705625042899	83.76536231251926	85.09329464553105	0	0	40.39138272950239	-40.39138272950239	4.906705625042899	83.76536231251926	85.09329464551364	0	0
31.29999999999942	0.4628107086078365	-0.613889994656677	92.45920709895408	0	0.9399999999999999	0	-5.943675932126054	2.63129060883639	-17.85682076385171	23.2136379317425	0.4051544132747533	0	0	0	16.17596800708259	1.482330878082296	-6.939516105406553	5.141052597370965	0.08972829484232972	0	0	0	0	0	0	40.39692072848298	-40.39692072848298	4.90691455627155	83.76812761850933	85.09308571431146	0	0	40.39692072848298	-40.39692072848298	4.90691455627155	83.76812761850933	85.09308571429402	0	0
31.31999999999942	0.7140471709470346	-0.3572456020844629	92.05014212872763	0	0.9399999999999999	0	-6.210877489188362	2.843708275114973	-17.41914541681023	23.21354049334807	0.4051527126539527	0	0	0	15.9614168833244	1.124853626724192	-7.201647876833759	3.938270545091622	0.06873578784616061	0	0	0	0	0	0	40.39812275492936	-40.39812275492936	4.90696328735463	83.76877262177011	85.09303698323053	0	0	40.39812275492936	-40.39812275492936	4.90696328735463	83.76877262177011	85.0930369832131	0	0
31.33999999999942	1.013527064929284	-0.2750637602693614	91.89807135672007	0	0.9399999999999999	0	-5.154364093455851	4.71297900166237	-15.09077704741598	21.07464321753485	0.3678219128290747	0	0	0	17.59541877167212	0.7504760523815965	-7.278797915447019	2.593922934458193	0.04527249574928854	0	0	0	0	0	0	40.40219472860763	-40.40219472860763	4.907113881523902	83.77076578833902	85.09288638906777	0	0	40.40219472860763	-40.40219472860763	4.907113881523902	83.77076578833902	85.09288638905032	0	0
31.35999999999942	1.350792447368409	-0.172823632021345	92.04787520646948	0	0.9399999999999999	0	-4.562163782762704	5.489232094818133	-15.44978844832855	19.86000361621567	0.3466224525609438	0	0	0	18.09829504066095	0.4966087025835683	-7.579924987705229	1.676244045023367	0.02925597765260582	0	0	0	0	0	0	40.40344922510955	-40.40344922510955	4.907164845573811	83.7714403474133	85.0928354250201	0	0	40.40344922510955	-40.40344922510955	4.907164845573811	83.7714403474133	85.09283542500266	0	0
31.37999999999942	1.513025400364072	-0.134726264205364	92.20922080119014	0	0.9399999999999999	0	-4.038022005956568	5.686501825721991	-16.56167926520818	18.58591314753301	0.3243853789141537	0	0	0	18.49821328424118	0.4359638542605646	-7.996030903421544	2.228022786868585	0.03888633344031668	0	0	0	0	0	0	40.40514678771048	-40.40514678771048	4.907233695838626	83.77235164709306	85.09276657475827	0	0	40.40514678771048	-40.40514678771048	4.907233695838626	83.77235164709306	85.09276657474086	0	0
31.39999999999942	1.889730982389161	-0.009158581091666508	92.54637211664732	0	0.9399999999999999	0	-3.755252299583158	6.02422939674425	-17.3455259289817	17.66444383931367	0.3083027055296516	0	0	0	18.71325815262222	0.3844039693011739	-8.557216882748168	1.193798931779398	0.02083572196634166	0	0	0	0	0	0	40.40657853083134	-40.40657853083134	4.90729177910241	83.77312043507855	85.09270849149698	0	0	40.40657853083134	-40.40657853083134	4.90729177910241	83.77312043507855	85.09270849147964	0	0
31.41999999999942	2.386400267057447	0.1480409861071558	92.81917245229391	0	0.9399999999999999	0	-3.239599648929232	6.422167568431663	-16.81622104437105	17.14047034981722	0.2991576429447748	0	0	0	18.83129964890014	0.2071309475596022	-9.312364257997562	1.635743152086807	0.02854910372086514	0	0	0	0	0	0	40.40770483567053	-40.40770483567053	4.907337492170398	83.77372549161173	85.09266277843098	0	0	40.40770483567053	-40.40770483567053	4.907337492170398	83.77372549161173	85.09266277841365	0	0
31.43999999999942	2.899853411474331	0.3819837662766369	93.13556639306917	0	0.9399999999999999	0	-2.583250436359421	6.609211199572819	-16.04679601474122	17.11467173364521	0.2987073721501149	0	0	0	18.94716680263471	0.05692648311923461	-10.48640333680395	2.40668810797277	0.04200463155271762	0	0	0	0	0	0	40.40954383868533	-40.40954383868533	4.907412187736599	83.77471415969676	85.09258808286805	0	0	40.40954383868533	-40.40954383868533	4.907412187736599	83.77471415969676	85.09258808285074	0	0
31.45999999999942	3.605366934238407	1.203627024779469	94.0873588255718	0	0.9399999999999999	0	-2.304757416395104	6.96416845883497	-16.27359317353507	16.68961497516882	0.2912887322068475	0	0	0	18.52255207292861	-0.02962863245593794	-11.86181125714258	-1.144804551656431	-0.01998060871822223	0	0	0	0	0	0	40.41055828294067	-40.41055828294067	4.907459124256423	83.7753354447715	85.0925411463503	0	0	40.41055828294067	-40.41055828294067	4.907459124256423	83.7753354447715	85.09254114633296	0	0
31.47999999999942	3.829749022057534	1.668040600568221	94.81678362404821	0	0.9399999999999999	0	-1.716710700773614	6.827516678457072	-15.48966872425361	16.45080372654799	0.2871206896276153	0	0	0	18.53268080437916	0.239485139956363	-13.70170008726805	-0.565964428375562	-0.00987794272432118	0	0	0	0	0	0	40.41959907475812	-40.41959907475812	4.907775602780364	83.77952402759296	85.09222466783989	0	0	40.41959907475812	-40.41959907475812	4.907775602780364	83.77952402759296	85.09222466782262	0	0
31.49999999999942	3.883820037476474	1.875566664430831	95.23256943452762	0	0.9399999999999999	0	-0.8771388627960465	6.773036718565144	-14.34386206133477	15.0425568510975	0.2625421449700818	0	0	0	18.94300416724461	0.4442274396614669	-15.58123489288077	1.315261601166203	0.02295564546540273	0	0	0	0	0	0	40.43190144507235	-40.43190144507235	4.908206931834172	83.78523265700646	85.09179333880449	0	0	40.43190144507235	-40.43190144507235	4.908206931834172	83.78523265700646	85.09179333878731	0	0
31.51999999999942	3.958480974805217	2.063049838092519	96.1303848048798	0	0.9399999999999999	0	-0.2552892386982685	6.675924286838337	-14.94659509992744	14.28525920213691	0.2493248075781072	0	0	0	19.3289013198213	0.467287020744282	-15.0156490301206	3.307010061184793	0.05771821396425376	0	0	0	0	0	0	40.43376649076713	-40.43376649076713	4.908282215733003	83.78622910717397	85.09171805490892	0	0	40.43376649076713	-40.43376649076713	4.908282215733003	83.78622910717397	85.09171805489176	0	0
31.53999999999942	3.901319615773072	2.155681040341773	96.98517694689244	0	0.9399999999999999	0	0.1996772654068188	6.473098673317113	-16.14540501901241	14.08381155330607	0.2458088828356078	0	0	0	19.04601430696771	0.5875939645707199	-14.45941428338094	5.385735308662524	0.09399881377707413	0	0	0	0	0	0	40.43545550765863	-40.43545550765863	4.908349998475992	83.78712627012565	85.09165027216892	0	0	40.43545550765863	-40.43545550765863	4.908349998475992	83.78712627012565	85.09165027215174	0	0
31.55999999999942	3.770019937399481	2.251155584184412	97.54611308607821	0	0.9399999999999999	0	0.3664326668447621	6.299668358716684	-17.16555559222658	12.93659040730025	0.2257860965893036	0	0	0	20.17937948074347	-0.8281422267358002	-13.23690959543232	12.63253903565035	0.2204793990588079	0	0	0	0	0	0	40.52165620643913	-40.52165620643913	4.911278309202647	83.82588167853302	85.08872196156639	0	0	40.52165620643913	-40.52165620643913	4.911278309202647	83.82588167853302	85.08872196154977	0	0
31.57999999999942	3.587997471592833	2.296272385429158	97.7665078016948	0	0.9399999999999999	0	0.4469588938827856	6.088777848917778	-17.703960383303	11.73962002017985	0.2048950222851816	0	0	0	20.70510817678331	-1.598568147600765	-11.31285226158474	16.83420687703102	0.2938123369660635	0	0	0	0	0	0	40.55120041160939	-40.55120041160939	4.912278142305207	83.83911418484377	85.08772212850621	0	0	40.55120041160939	-40.55120041160939	4.912278142305207	83.83911418484377	85.08772212848976	0	0
31.59999999999942	3.48306214888111	2.314050420198747	97.78916477044585	0	0.9399999999999999	0	0.6335461453878946	5.859542323450713	-17.70371148386563	10.65075817245962	0.1858907979431144	0	0	0	20.92233675298953	-2.286803435282219	-10.4060439835274	21.19227247489026	0.3698749306666023	0	0	0	0	0	0	40.55319303582454	-40.55319303582454	4.912356891840852	83.84015648665361	85.08764337897397	0	0	40.55319303582454	-40.55319303582454	4.912356891840852	83.84015648665361	85.08764337895758	0	0
31.61999999999941	3.252127319369709	2.260518556107346	97.62535744284892	0	0.9399999999999999	0	1.043914027366706	5.394087077335904	-17.09144469416882	9.794877120326587	0.1709528555779598	0	0	0	20.87160992472838	-2.191075877267773	-10.22788785189572	21.10197293079772	0.3682989063091377	0	0	0	0	0	0	40.55462060537975	-40.55462060537975	4.912413259457358	83.84090254871582	85.08758701135989	0	0	40.55462060537975	-40.55462060537975	4.912413259457358	83.84090254871582	85.08758701134352	0	0
31.63999999999941	3.04032295886452	2.096999770449022	97.34988644783704	0	0.9399999999999999	0	1.624718086987926	4.944662314720381	-16.02164490808036	9.05535236952924	0.1580457137765555	0	0	0	20.46501548859252	-2.525562529095611	-10.46275078459534	24.82878836986708	0.4333441063350562	0	0	0	0	0	0	40.55619455219572	-40.55619455219572	4.91247523570628	83.84172284352834	85.08752503511357	0	0	40.55619455219572	-40.55619455219572	4.91247523570628	83.84172284352834	85.08752503509724	0	0
31.65999999999941	2.936179802348141	1.819452258348036	97.06798132997216	0	0.9399999999999999	0	2.306256304709835	4.568899813723145	-14.94581104875951	8.798028097177953	0.1535545579787269	0	0	0	19.87002437200421	-3.043123292868295	-10.82854560820252	28.45054222548255	0.4965556358123455	0	0	0	0	0	0	40.55796188302298	-40.55796188302298	4.912545076964913	83.84264723801735	85.08745519385806	0	0	40.55796188302298	-40.55796188302298	4.912545076964913	83.84264723801735	85.08745519384173	0	0
